<svg width="256" height="256" viewBox="0 0 256 256" fill="none" xmlns="http://www.w3.org/2000/svg">
<rect width="256" height="256" rx="128" fill="url(#paint0_radial_45_57)"/>
<rect width="256" height="256" rx="128" fill="url(#paint1_radial_45_57)"/>
<path d="M128.132 50C106.915 50 104.252 50.093 95.9188 50.4719C87.6016 50.8531 81.9242 52.1695 76.957 54.1016C71.818 56.0969 67.4594 58.7664 63.1172 63.1102C58.7711 67.4531 56.1016 71.8117 54.1 76.9484C52.1625 81.9172 50.8445 87.5969 50.4703 95.9102C50.0977 104.244 50 106.908 50 128.126C50 149.344 50.0938 151.998 50.4719 160.331C50.8547 168.648 52.1711 174.326 54.1016 179.293C56.0984 184.432 58.768 188.791 63.1117 193.133C67.4531 197.479 71.8117 200.155 76.9469 202.15C81.918 204.082 87.5961 205.398 95.9117 205.78C104.245 206.159 106.906 206.252 128.123 206.252C149.342 206.252 151.997 206.159 160.33 205.78C168.647 205.398 174.33 204.082 179.302 202.15C184.438 200.155 188.791 197.479 193.131 193.133C197.477 188.791 200.146 184.432 202.148 179.295C204.069 174.326 205.387 168.647 205.778 160.333C206.152 152 206.25 149.344 206.25 128.126C206.25 106.908 206.152 104.245 205.778 95.9117C205.387 87.5945 204.069 81.918 202.148 76.9508C200.146 71.8117 197.477 67.4531 193.131 63.1102C188.786 58.7648 184.44 56.0953 179.297 54.1023C174.316 52.1695 168.636 50.8523 160.319 50.4719C151.985 50.093 149.332 50 128.108 50H128.132ZM121.123 64.0789C123.204 64.0758 125.525 64.0789 128.132 64.0789C148.992 64.0789 151.464 64.1539 159.702 64.5281C167.319 64.8766 171.453 66.1492 174.207 67.2188C177.853 68.6344 180.452 70.3273 183.185 73.0625C185.92 75.7969 187.612 78.4008 189.031 82.0469C190.101 84.7969 191.375 88.9313 191.722 96.5484C192.096 104.784 192.177 107.258 192.177 128.108C192.177 148.958 192.096 151.432 191.722 159.667C191.373 167.284 190.101 171.419 189.031 174.17C187.616 177.816 185.92 180.412 183.185 183.145C180.451 185.879 177.855 187.571 174.207 188.988C171.456 190.062 167.319 191.331 159.702 191.68C151.466 192.054 148.992 192.135 128.132 192.135C107.271 192.135 104.798 192.054 96.5633 191.68C88.9461 191.328 84.8117 190.055 82.0555 188.986C78.4102 187.57 75.8055 185.877 73.0711 183.143C70.3367 180.409 68.6445 177.811 67.225 174.163C66.1555 171.413 64.8813 167.278 64.5344 159.661C64.1602 151.425 64.0852 148.952 64.0852 128.088C64.0852 107.225 64.1602 104.765 64.5344 96.5289C64.8828 88.9117 66.1555 84.7773 67.225 82.0234C68.6414 78.3773 70.3367 75.7734 73.0719 73.0391C75.807 70.3047 78.4102 68.6117 82.0562 67.193C84.8102 66.1187 88.9461 64.8492 96.5633 64.4992C103.77 64.1734 106.563 64.0758 121.123 64.0594V64.0789ZM169.835 77.0508C164.659 77.0508 160.46 81.2461 160.46 86.4227C160.46 91.5984 164.659 95.7977 169.835 95.7977C175.011 95.7977 179.21 91.5984 179.21 86.4227C179.21 81.2469 175.011 77.0477 169.835 77.0477V77.0508ZM128.132 88.0047C105.976 88.0047 88.0117 105.969 88.0117 128.126C88.0117 150.283 105.976 168.238 128.132 168.238C150.289 168.238 168.247 150.283 168.247 128.126C168.247 105.97 150.288 88.0047 128.13 88.0047H128.132ZM128.132 102.084C142.514 102.084 154.174 113.742 154.174 128.126C154.174 142.508 142.514 154.168 128.132 154.168C113.75 154.168 102.091 142.508 102.091 128.126C102.091 113.742 113.749 102.084 128.132 102.084Z" fill="white"/>
<defs>
<radialGradient id="paint0_radial_45_57" cx="0" cy="0" r="1" gradientUnits="userSpaceOnUse" gradientTransform="translate(216.32 290.56) rotate(-115.776) scale(349.103 519.251)">
<stop offset="0.24392" stop-color="#FF1B90"/>
<stop offset="0.436673" stop-color="#F80261"/>
<stop offset="0.688476" stop-color="#ED00C0"/>
<stop offset="0.776787" stop-color="#C500E9"/>
<stop offset="0.893155" stop-color="#7017FF"/>
</radialGradient>
<radialGradient id="paint1_radial_45_57" cx="0" cy="0" r="1" gradientUnits="userSpaceOnUse" gradientTransform="translate(92.8 247.168) rotate(-57.4396) scale(151.263 157.335)">
<stop stop-color="#FFD600"/>
<stop offset="0.484375" stop-color="#FF6930"/>
<stop offset="0.734375" stop-color="#FE3B36"/>
<stop offset="1" stop-color="#FE3B36" stop-opacity="0"/>
</radialGradient>
</defs>
</svg>
