<svg width="256" height="256" viewBox="0 0 256 256" fill="none" xmlns="http://www.w3.org/2000/svg">
<rect width="256" height="256" rx="128" fill="#0076B2"/>
<path d="M56.439 103.181H87.1128V202H56.439V103.181ZM71.7844 54C75.3025 54 78.7416 55.0448 81.6666 57.0022C84.5916 58.9596 86.8711 61.7416 88.2166 64.9964C89.5622 68.2511 89.9134 71.8323 89.2258 75.287C88.5382 78.7416 86.8427 81.9145 84.3539 84.4041C81.865 86.8938 78.6945 88.5884 75.2436 89.2735C71.7926 89.9587 68.2162 89.6036 64.9669 88.2533C61.7175 86.9029 58.9411 84.6179 56.989 81.6874C55.0368 78.7569 53.9967 75.3124 54 71.7898C54.0045 67.0701 55.8802 62.5453 59.2149 59.2095C62.5497 55.8737 67.0706 54 71.7844 54ZM106.354 103.181H135.757V116.748H136.164C140.263 108.981 150.256 100.79 165.178 100.79C196.241 100.722 202 121.191 202 147.732V202H171.326V153.922C171.326 142.474 171.123 127.737 155.388 127.737C139.653 127.737 136.977 140.219 136.977 153.175V202H106.354V103.181Z" fill="white"/>
</svg>
